PathFileType	4	(X/Y/Z)	 s04c0201.trc
DataRate	CameraRate	NumFrames	NumMarkers	Units	OrigDataRate	OrigDataStartFrame	OrigNumFrames
200	200	5	51	mm	200	1751	2000
Frame#	Time	racr			lacr			c7			jug			rlel			rdr			llel			ldr			s2			lic			ric			lasi			rasi			rpsi			lpsi			rgt			lgt			rth1			rth2			rth3			rth4			rlfc			rmfc			rsh1			rsh2			rsh3			rsh4			rlmal			rmmal			rcal			rtoe			rmt5			lth1			lth2			lth4			lth3			llfc			lmfc			lsh1			lsh2			lsh3			lsh4			llmal			lmmal			lcal			ltoe			lmt1			lmt5			SBIKE			LBIKE			RBIKE			
		X1	Y1	Z1	X2	Y2	Z2	X3	Y3	Z3	X4	Y4	Z4	X5	Y5	Z5	X6	Y6	Z6	X7	Y7	Z7	X8	Y8	Z8	X9	Y9	Z9	X10	Y10	Z10	X11	Y11	Z11	X12	Y12	Z12	X13	Y13	Z13	X14	Y14	Z14	X15	Y15	Z15	X16	Y16	Z16	X17	Y17	Z17	X18	Y18	Z18	X19	Y19	Z19	X20	Y20	Z20	X21	Y21	Z21	X22	Y22	Z22	X23	Y23	Z23	X24	Y24	Z24	X25	Y25	Z25	X26	Y26	Z26	X27	Y27	Z27	X28	Y28	Z28	X29	Y29	Z29	X30	Y30	Z30	X31	Y31	Z31	X32	Y32	Z32	X33	Y33	Z33	X34	Y34	Z34	X35	Y35	Z35	X36	Y36	Z36	X37	Y37	Z37	X38	Y38	Z38	X39	Y39	Z39	X40	Y40	Z40	X41	Y41	Z41	X42	Y42	Z42	X43	Y43	Z43	X44	Y44	Z44	X45	Y45	Z45	X46	Y46	Z46	X47	Y47	Z47	X48	Y48	Z48	X49	Y49	Z49	X50	Y50	Z50	X51	Y51	Z51	
1751	8.7550	518.589748	1344.222233	-88.645684	552.108142	1346.042458	-347.260574	491.427971	1414.014690	-230.103362	473.010833	1254.864650	-235.094166	437.217901	1061.254473	49.220198	676.929562	948.795547	-71.909287	488.635521	1126.723408	-549.158218	695.833137	953.127411	-468.398257	-69.465709	1186.613003	-290.368365	100.268901	1195.922836	-439.245453	66.879771	1206.593317	-121.378271	129.336823	1144.700648	-391.743573	108.354418	1149.833177	-157.571334	-48.719265	1235.566578	-248.279221	-39.806272	1231.974433	-323.996739	29.606211	1166.063409	-100.772668	49.743068	1090.108236	-462.868340	166.570093	1088.602243	-95.855925	253.079644	1071.751889	-106.007245	319.570414	1019.407885	-106.024900	264.548837	1101.463788	-126.370342	441.253378	936.818040	-133.114633	424.462647	910.637379	-245.972517	391.762981	824.288980	-105.484209	380.416629	736.901635	-113.312171	324.037274	671.354933	-116.137951	410.689870	726.173271	-135.381540	277.121515	520.908668	-117.345893	298.575100	524.291474	-201.511918	203.154427	495.324890	-154.053124	497.855876	435.689987	-147.486492	429.326068	421.087166	-90.846995	100.806061	1007.933676	-475.947319	171.653354	958.010095	-481.012620	199.132511	980.653679	-473.396196	209.369844	877.376619	-485.185340	289.435071	737.843442	-464.690877	315.235538	710.172713	-355.379091	240.183791	625.101016	-485.393859	210.176803	547.075097	-460.376299	143.807320	488.124580	-457.996884	233.622981	536.396182	-430.617656	57.377629	368.729496	-448.598981	55.992237	371.875751	-359.638221	-20.138993	391.191806	-406.107788	219.704773	205.562942	-405.743317	NaN	NaN	NaN	141.285978	216.250191	-468.113366	-182.481595	937.943764	-280.141867	-4.221163	85.754581	-483.888074	-15.834192	80.523921	-83.269266	
1752	8.7600	518.729365	1344.237020	-88.809148	551.341771	1345.428512	-348.403465	491.447043	1413.446096	-231.137731	472.997054	1254.116067	-235.610246	437.409765	1061.463770	49.142376	676.993428	948.854312	-72.007621	487.362958	1125.791309	-549.522631	695.601056	952.983921	-469.478768	-69.313782	1185.301162	-290.774368	100.763163	1195.393463	-439.151996	67.309067	1205.050636	-121.012436	129.627991	1144.080747	-391.069191	109.982555	1149.738659	-158.045075	-48.578966	1234.230959	-248.160966	-39.665868	1230.921992	-324.271346	30.493748	1162.909398	-100.834403	51.167328	1089.275115	-463.263319	166.981755	1081.575413	-95.272565	253.004100	1062.637198	-105.290714	318.237534	1008.149904	-106.936524	265.311236	1092.284950	-125.113607	437.644347	924.135713	-132.921802	420.317214	897.249186	-245.589663	389.254880	810.064563	-105.185944	379.334952	722.500226	-113.376007	323.918837	656.069668	-116.161611	409.339279	712.399285	-135.303189	279.048131	506.056173	-117.619520	298.801348	509.531505	-201.682412	204.640697	477.913483	-153.602718	501.295079	429.118165	-147.341518	433.458078	411.968981	-90.649395	103.870587	1008.461904	-475.780082	175.732640	959.955481	-480.113488	202.697242	983.027292	-471.902841	215.137193	880.117672	-484.533413	296.399573	742.732534	-464.051291	321.394660	715.469446	-354.033388	246.021372	631.399395	-484.792407	213.748655	554.114167	-459.528337	145.989782	496.741038	-457.309217	236.763115	542.958205	-429.524592	56.420718	379.728507	-448.025089	55.188957	382.837557	-358.998630	-20.654940	404.112227	-405.464755	214.301643	212.071710	-405.925783	NaN	NaN	NaN	136.384003	225.107851	-468.030704	-182.472910	937.948173	-280.126383	-4.212443	85.725457	-483.877532	-15.851559	80.470111	-83.256903	
1753	8.7650	518.774960	1343.967856	-90.150183	550.877870	1344.983076	-349.901019	491.475168	1413.063670	-231.939408	473.188401	1253.437059	-236.022948	437.598562	1061.778223	48.988005	677.150391	948.901725	-71.958694	486.128178	1124.802608	-549.765449	695.270996	952.757009	-470.314871	-68.941801	1183.783822	-291.253702	101.338025	1194.690337	-438.999285	67.752990	1203.333025	-120.753234	130.208115	1143.554341	-390.694251	111.783993	1149.622561	-158.547079	-48.117787	1232.574501	-248.252146	-39.503644	1229.657132	-324.601225	31.122862	1159.092153	-100.988386	52.796293	1088.473150	-463.734743	167.124935	1073.325140	-94.833323	252.805116	1052.590443	-104.829896	316.542368	996.422008	-107.309072	266.036919	1082.556423	-123.468165	433.944449	910.333331	-133.401126	416.109149	883.378783	-245.921670	386.127374	794.883446	-104.786152	377.643799	707.372664	-113.729353	323.447684	639.968231	-116.359568	408.934624	697.992214	-135.689821	279.866987	490.555979	-118.387148	299.028958	494.831478	-202.416755	206.462742	460.132956	-154.493512	504.072225	422.010263	-147.090050	436.645958	402.582163	-90.466618	106.684003	1008.667722	-475.152558	179.743486	961.859048	-479.368283	206.152735	985.330735	-470.545776	220.713921	882.780763	-483.922811	302.854935	747.640798	-463.260358	327.496861	720.149584	-353.330207	251.280811	637.697880	-484.000876	217.145483	561.270303	-458.787675	147.907302	505.564710	-456.494356	239.992406	549.621776	-428.738810	55.527755	390.765270	-447.490409	54.513869	393.862117	-358.382270	-20.828550	416.742431	-404.970224	209.536890	219.381640	-406.012380	NaN	NaN	NaN	131.923993	234.346710	-467.982037	-182.464145	937.952598	-280.110948	-4.193976	85.671894	-483.878397	-15.827957	80.397651	-83.271250	
1754	8.7700	519.046134	1344.014710	-90.900449	550.423289	1344.647491	-351.459256	491.730009	1412.682047	-233.148057	473.629738	1253.075173	-236.532553	437.781690	1062.099315	48.675878	677.406511	948.970010	-71.802013	484.997908	1123.816534	-550.005148	694.825584	952.404536	-471.012216	-68.621739	1182.289811	-291.609862	101.755516	1193.759616	-438.554021	68.245269	1201.497541	-120.490904	130.672618	1143.040598	-390.267381	113.281219	1149.542726	-159.534964	-48.752612	1231.209908	-247.385493	-39.279233	1228.246871	-324.990776	31.777860	1154.973297	-101.110495	54.646601	1087.477378	-464.137864	167.203458	1064.814739	-94.055297	252.409407	1042.157223	-104.365658	314.915813	984.781654	-107.814634	266.626218	1071.881919	-122.555588	429.876687	895.807633	-133.534349	411.836623	869.021686	-244.360872	382.615301	779.106902	-104.660474	375.099691	691.494314	-114.129056	322.400643	623.411196	-116.979950	406.638238	682.875847	-136.413269	279.903945	474.899593	-118.767829	299.386163	480.041396	-203.252020	207.851318	442.705338	-155.191159	506.278684	414.223708	-146.719914	439.366178	392.602966	-90.373256	109.647462	1009.100569	-474.784765	183.615159	963.696548	-478.746119	209.483548	987.626422	-469.298443	226.094398	885.477997	-483.491493	309.083041	752.536388	-462.509201	333.553414	724.897181	-352.176833	255.938583	644.060715	-483.220708	220.364978	568.438792	-458.104982	149.880892	514.373547	-455.840781	242.662257	556.351449	-427.984640	54.946089	401.829583	-446.890922	54.104151	404.952727	-357.764488	-20.910004	429.291716	-404.152203	205.355803	227.334517	-406.290776	NaN	NaN	NaN	127.958556	244.125824	-468.041403	-182.455301	937.957041	-280.095561	-4.181042	85.598004	-483.899930	-15.837320	80.385117	-83.276787	
1755	8.7750	519.402262	1344.134961	-91.693541	550.203224	1344.412800	-353.314859	491.992556	1412.370883	-234.147836	474.346970	1252.636990	-237.281712	437.908724	1062.539897	48.353054	677.663401	948.982756	-71.370844	483.991508	1122.872243	-550.125565	694.167222	951.972538	-471.550281	-68.266073	1180.704019	-291.881446	102.399521	1192.765191	-438.232068	68.921658	1199.618385	-119.973053	131.245874	1142.421372	-389.732185	115.289326	1149.305167	-159.604581	-47.923499	1229.397583	-247.487523	-39.139231	1226.721749	-325.190890	32.471152	1150.683775	-101.048367	56.628648	1086.589948	-464.497283	167.203995	1055.951956	-93.896726	252.242139	1031.352665	-103.462931	312.890105	972.621707	-107.753217	267.142220	1061.247810	-120.912657	425.843852	881.414266	-134.123743	406.511611	854.455019	-246.686201	378.840230	762.457203	-104.409296	372.409382	675.410112	-114.818883	320.832712	606.568081	-118.154642	403.980012	667.455364	-137.289185	279.869703	459.694581	-119.221175	299.976636	465.571248	-204.312164	208.880643	426.191146	-155.776368	508.002041	405.763457	-146.527298	441.579808	382.381840	-90.308710	112.618395	1009.621277	-474.321318	187.388227	965.816895	-478.534548	212.650618	989.747901	-467.937246	231.228916	888.258422	-483.162984	315.103605	757.478529	-461.708614	339.282081	729.631609	-351.451533	260.528886	650.532794	-482.674478	223.430574	575.751341	-457.546787	151.792225	523.082438	-455.213999	245.536564	563.362149	-427.418561	54.538204	412.948160	-446.302616	53.726162	416.214650	-356.991909	-20.815321	441.573733	-403.486602	201.828074	235.676220	-406.449306	NaN	NaN	NaN	124.604191	254.058071	-467.990062	-182.446378	937.961499	-280.080225	-4.186293	85.506186	-483.904523	-15.836960	80.342467	-83.282017	
